# xmcd
#
# Track frame offsets: 
#        150
#        25136
#        52651
#        74643
#        100121
#        132746
#        158980
#        184962
#        209390
#
# Disc length: 3123 seconds
#
# Revision: 0
# Processed by: cddbd v1.5.2PL0 Copyright (c) Steve Scherf et al.
# Submitted via: ExactAudioCopyFreeDBPlugin 1.0
#
DISCID=810c3109
DTITLE=Le Thu - Hoai niem V2
DYEAR=1900
DGENRE=
TTITLE0=Tinh lo
TTITLE1=Ky niem
TTITLE2=Chuyen ben
TTITLE3=Chieu vang
TTITLE4=Hoai cam
TTITLE5=La thu
TTITLE6=Huong xua
TTITLE7=Duong xua
TTITLE8=Sang ngang
EXTD=
EXTT0=
EXTT1=
EXTT2=
EXTT3=
EXTT4=
EXTT5=
EXTT6=
EXTT7=
EXTT8=
PLAYORDER=
